<svg width="31" height="27" viewBox="0 0 31 27" fill="none" xmlns="http://www.w3.org/2000/svg">
<path d="M29.6597 4.12121C28.7912 2.74398 27.5191 1.66803 26.0169 1.03998C24.3148 0.325525 22.4031 0.196923 20.4885 0.669007C18.7339 1.10168 17.0249 2.04009 15.4999 3.40143C13.9748 2.03997 12.2657 1.10149 10.5109 0.668886C8.59621 0.196621 6.68432 0.325343 4.98223 1.04028C3.48 1.66852 2.20803 2.74469 1.33967 4.12212C0.430253 5.55974 -0.0323859 7.30803 0.00176252 9.17778C0.153372 17.49 12.5353 25.0484 15.0159 26.4794C15.1631 26.5643 15.3301 26.6089 15.5 26.6089C15.6699 26.6089 15.8368 26.5643 15.984 26.4794C18.4649 25.0483 30.8479 17.4884 30.9982 9.17633C31.032 7.3067 30.5692 5.55859 29.6597 4.12121ZM29.0611 9.14151C29.0126 11.8291 27.221 14.9624 23.8805 18.2027C20.7868 21.2032 17.2679 23.4649 15.4999 24.5173C13.732 23.4651 10.2136 21.2037 7.12026 18.203C3.77952 14.963 1.98794 11.8299 1.9389 9.14242C1.88538 6.2079 3.30357 3.84687 5.73252 2.8266C6.52858 2.4941 7.38319 2.3245 8.24589 2.32781C10.4737 2.32781 12.8303 3.40627 14.8092 5.41849C14.8993 5.51016 15.0068 5.58296 15.1254 5.63266C15.244 5.68236 15.3713 5.70795 15.4999 5.70795C15.6284 5.70795 15.7557 5.68236 15.8743 5.63266C15.9929 5.58296 16.1004 5.51016 16.1905 5.41849C18.9397 2.62304 22.4178 1.62989 25.2665 2.82641C27.6957 3.84633 29.1141 6.20699 29.0611 9.14133V9.14151Z" fill="#D3315C"/>
</svg>
