<svg width="35" height="40" viewBox="0 0 35 40" fill="none" xmlns="http://www.w3.org/2000/svg">
<path d="M17.5 19.527C16.4212 19.527 15.3666 19.1684 14.4696 18.4964C13.5726 17.8245 12.8735 16.8694 12.4606 15.7521C12.0478 14.6347 11.9398 13.4052 12.1502 12.2189C12.3607 11.0327 12.8802 9.94314 13.643 9.08794C14.4058 8.23273 15.3778 7.65033 16.4358 7.41438C17.4939 7.17843 18.5906 7.29952 19.5873 7.76236C20.584 8.22519 21.4359 9.00898 22.0352 10.0146C22.6346 11.0202 22.9545 12.2025 22.9545 13.4119C22.9529 15.0332 22.3777 16.5875 21.3551 17.7339C20.3326 18.8804 18.9461 19.5252 17.5 19.527ZM17.5 8.99551C16.7208 8.99551 15.9592 9.25452 15.3113 9.73981C14.6635 10.2251 14.1586 10.9148 13.8604 11.7218C13.5623 12.5288 13.4843 13.4168 13.6363 14.2735C13.7883 15.1302 14.1635 15.9172 14.7144 16.5348C15.2653 17.1525 15.9673 17.5731 16.7314 17.7435C17.4956 17.9139 18.2877 17.8265 19.0075 17.4922C19.7273 17.1579 20.3426 16.5918 20.7754 15.8656C21.2083 15.1393 21.4394 14.2854 21.4394 13.4119C21.4381 12.241 21.0227 11.1185 20.2842 10.2905C19.5457 9.46259 18.5444 8.99685 17.5 8.99551Z" fill="#D3315C"/>
<path d="M26.9697 31.9421C26.7688 31.9421 26.5761 31.8527 26.434 31.6934C26.2919 31.5341 26.2121 31.3181 26.2121 31.0928V28.9933C26.2105 27.3806 25.6383 25.8345 24.6212 24.6941C23.604 23.5538 22.2248 22.9123 20.7863 22.9105H14.2136C12.7751 22.9123 11.396 23.5538 10.3788 24.6941C9.36162 25.8345 8.78946 27.3806 8.78786 28.9933V31.0928C8.78786 31.3181 8.70804 31.5341 8.56597 31.6934C8.42389 31.8527 8.2312 31.9421 8.03028 31.9421C7.82936 31.9421 7.63667 31.8527 7.49459 31.6934C7.35252 31.5341 7.27271 31.3181 7.27271 31.0928V28.9933C7.27491 26.9303 8.00689 24.9525 9.30809 23.4938C10.6093 22.035 12.3734 21.2144 14.2136 21.2119H20.7856C22.6259 21.2142 24.3902 22.0347 25.6916 23.4935C26.993 24.9523 27.725 26.9302 27.7272 28.9933V31.0928C27.7272 31.3181 27.6474 31.5341 27.5054 31.6934C27.3633 31.8527 27.1706 31.9421 26.9697 31.9421Z" fill="#D3315C"/>
</svg>
