<?xml version="1.0" encoding="UTF-8"?>
<svg id="Layer_2" data-name="Layer 2" xmlns="http://www.w3.org/2000/svg" viewBox="0 0 189.88 189.88">
  <defs>
    <style>
      .cls-1 {
        stroke-width: 0px;
      }
    </style>
  </defs>
  <g id="Design_Elements" data-name="Design Elements">
    <path class="cls-1" d="m187.65,92.15l-28.52-6.69c-7.08-24.62-29.04-46.93-54.69-54.7,0,0-6.71-28.53-6.71-28.53-.3-1.31-1.45-2.23-2.79-2.23s-2.49.92-2.79,2.23l-6.67,28.48c-25.91,9-48.91,30.87-54.6,54.72,0,0-28.62,6.71-28.62,6.71-1.34.33-2.25,1.48-2.25,2.82s.92,2.49,2.23,2.79l28.53,6.71c7.7,25.15,30.1,47.06,54.72,54.72,0,0,6.68,28.49,6.68,28.49.3,1.31,1.45,2.23,2.79,2.23s2.49-.92,2.79-2.23l6.72-28.54c24.88-6.84,47.17-28.83,54.68-54.67,0,0,28.52-6.72,28.52-6.72,1.31-.3,2.23-1.45,2.23-2.79s-.92-2.49-2.23-2.79h0Zm-34.77-8.19l-24.24-5.7,3.56-17.18c.21-1.01-.15-2.05-.92-2.73s-1.84-.89-2.82-.56l-16.35,5.55-6.17-26.32c23.56,4.48,42.46,23.35,46.94,46.94Zm-29.85-7l-8.19-1.93-1.42-6.08,12.13-4.09-2.52,12.1Zm-39.07-39.93l-6.17,26.29-16.38-5.52c-.98-.33-2.05-.12-2.82.56s-1.13,1.72-.89,2.73l3.62,17.18-24.3,5.7c4.45-23.59,23.35-42.49,46.94-46.94h0Zm-17.06,39.93l-2.55-12.1,12.13,4.09-1.42,6.11-8.16,1.9Zm-29.91,28.96l24.33,5.73-3.65,17.15c-.21,1.01.12,2.05.89,2.73.53.47,1.22.74,1.93.74.3,0,.62-.06.92-.15l16.41-5.46,6.17,26.26c-23.97-4.48-42.52-23.05-47-47h0Zm29.94,7.03l8.1,1.9,1.45,6.17-12.13,4.03,2.58-12.1Zm38.98,39.93l6.17-26.29,16.38,5.49c.3.09.59.15.92.15.68,0,1.36-.24,1.9-.74.77-.68,1.13-1.72.89-2.73l-3.62-17.15,24.3-5.73c-4.42,23.97-22.99,42.54-46.94,47Zm17.06-39.93l2.55,12.1-12.1-4.06,1.45-6.14,8.1-1.9Zm-9.2,1.37c-1.07.24.24-1.07,0,0l-16.96,52.09c-.46,1.98-3.29,1.99-3.76,0l-16.92-52.46c-.24-1.07,1.07.24,0,0l-52.65-17.13c-1.99-.46-1.99-3.29,0-3.76l52.65-16.49c1.07-.24-.24,1.07,0,0l16.93-53.12c.47-1.98,3.29-1.98,3.76,0l16.95,53.12c.24,1.07-1.07-.24,0,0l52.66,16.51c1.98.47,1.99,3.29,0,3.76l-52.67,17.5Z"/>
  </g>
</svg>