<svg xmlns="http://www.w3.org/2000/svg" version="1.1" xmlns:xlink="http://www.w3.org/1999/xlink" width="512" height="512" x="0" y="0" viewBox="0 0 512 512" style="enable-background:new 0 0 512 512" xml:space="preserve" class=""><g><path d="M302.776 32h-93.552l2.286 16h88.98zM192.2 272.777c-10.264-19.159-19.671-45.684-27.959-78.837-13.973-55.89-20.133-112.522-20.194-113.087a8 8 0 0 1 1.881-6.059l1.273-1.485c-16.076 2.866-24.239 4.418-28.376 5.255L49.8 416h58.107C116.99 359.812 128 286.95 128 264v-56a8 8 0 0 1 16 0v56c0 19.458-7.207 71.054-14.8 120H176a8 8 0 0 1 0 16h-49.306a6664.17 6664.17 0 0 1-13.2 80H232V311.084c-14.625-3.399-27.982-16.242-39.8-38.307z" fill="#d3315c" opacity="1" data-original="#000000" class=""></path><path d="M230.417 293.484 194.579 42.618l-34.232 39.937c1.542 12.931 7.676 60.6 19.449 107.644 18.114 72.388 37.177 96.349 50.621 103.285zM332.2 190.2c11.774-47.048 17.907-94.713 19.448-107.644l-34.23-39.936-35.834 250.863c13.444-6.936 32.506-30.897 50.616-103.283z" fill="#d3315c" opacity="1" data-original="#000000" class=""></path><path d="m364.8 73.308 1.273 1.486a8 8 0 0 1 1.88 6.059c-.06.565-6.221 57.2-20.193 113.087-8.288 33.153-17.7 59.678-27.959 78.837-11.821 22.065-25.177 34.908-39.8 38.307V480H398.5a6747.813 6747.813 0 0 1-13.2-80H336a8 8 0 0 1 0-16h46.8c-7.593-48.946-14.8-100.542-14.8-120v-56a8 8 0 0 1 16 0v56c0 22.95 11.01 95.812 20.091 152H462.2L393.177 78.564c-4.136-.837-12.299-2.39-28.377-5.256zM298.2 64h-84.4l34.124 238.868h-.008A7.964 7.964 0 0 1 248 304v144h16V304a7.964 7.964 0 0 1 .089-1.131h-.008z" fill="#d3315c" opacity="1" data-original="#000000" class=""></path></g></svg>