<svg width="31" height="31" viewBox="0 0 31 31" fill="none" xmlns="http://www.w3.org/2000/svg">
<circle cx="15.5" cy="15.5" r="15.5" fill="#D3315C"/>
<g clip-path="url(#clip0_224_181)">
<path d="M23.7031 22.9733L22.5288 9.75024C22.5036 9.45667 22.2562 9.2344 21.9668 9.2344H19.5512C19.5177 7.02846 17.7143 5.24609 15.5 5.24609C13.2857 5.24609 11.4823 7.02846 11.4488 9.2344H9.03315C8.73959 9.2344 8.49635 9.45667 8.47118 9.75024L7.29692 22.9733C7.29692 22.9901 7.29272 23.0068 7.29272 23.0236C7.29272 24.5292 8.67249 25.7538 10.371 25.7538H20.629C22.3275 25.7538 23.7073 24.5292 23.7073 23.0236C23.7073 23.0068 23.7073 22.9901 23.7031 22.9733ZM15.5 6.37842C17.0894 6.37842 18.3853 7.65334 18.4189 9.2344H12.5811C12.6147 7.65334 13.9105 6.37842 15.5 6.37842ZM20.629 24.6215H10.371C9.30575 24.6215 8.44183 23.9169 8.42505 23.0488L9.54899 10.3709H11.4446V12.0904C11.4446 12.4049 11.6962 12.6565 12.0108 12.6565C12.3253 12.6565 12.5769 12.4049 12.5769 12.0904V10.3709H18.4189V12.0904C18.4189 12.4049 18.6705 12.6565 18.985 12.6565C19.2996 12.6565 19.5512 12.4049 19.5512 12.0904V10.3709H21.4468L22.5749 23.0488C22.5582 23.9169 21.69 24.6215 20.629 24.6215Z" fill="white"/>
</g>
<defs>
<clipPath id="clip0_224_181">
<rect width="20.5077" height="20.5077" fill="white" transform="translate(5.24609 5.24609)"/>
</clipPath>
</defs>
</svg>
