<svg width="64" height="69" viewBox="0 0 64 69" fill="none" xmlns="http://www.w3.org/2000/svg">
<path d="M62.8893 65.5754C63.094 65.5286 63.2833 65.4536 63.4458 65.355C63.6083 65.2563 63.7408 65.136 63.8356 65.0011C63.9303 64.8662 63.9854 64.7194 63.9975 64.5694C64.0095 64.4195 63.9784 64.2693 63.9059 64.1279C58.115 52.6566 55.2147 42.3946 49.8356 35.6136C48.3501 33.7417 45.9259 31.1257 45.7047 28.5344C45.4634 25.7553 47.5241 23.0042 48.6074 21.2315C50.2884 18.4776 51.3605 15.4788 49.4326 10.3309C48.7088 8.39954 48.3702 3.31284 48.2527 1.08036C48.2365 0.790624 48.0599 0.516531 47.76 0.315616C47.4601 0.114702 47.0601 0.00258857 46.6442 0.00280916H45.0895C44.7036 0.00190436 44.3302 0.0983634 44.0384 0.274373C43.7466 0.450382 43.556 0.694053 43.5018 0.960385C41.9165 9.10819 33.7384 14.1842 32.0004 14.7505C30.2623 14.1842 22.0842 9.10819 20.4989 0.958703C20.4449 0.69212 20.2543 0.448174 19.9623 0.271946C19.6703 0.0957185 19.2967 -0.000878595 18.9105 6.0224e-06H17.3558C16.9398 -0.000214572 16.5399 0.111899 16.2399 0.312813C15.94 0.513728 15.7634 0.78782 15.7472 1.07756C15.6297 3.31115 15.2903 8.39785 14.5673 10.3281C12.637 15.476 13.7107 18.4748 15.3925 21.2287C16.4751 23.0014 18.5292 25.7525 18.2952 28.5316C18.074 31.1229 15.649 33.7388 14.1643 35.6108C8.7852 42.3946 5.88813 52.6543 0.0939883 64.1245C0.0215147 64.266 -0.0095727 64.4162 0.00255922 64.5662C0.0146911 64.7162 0.0697969 64.863 0.164626 64.9979C0.259455 65.1328 0.392088 65.2531 0.554699 65.3517C0.71731 65.4504 0.906605 65.5253 1.11142 65.5721C21.1821 70.1415 42.8176 70.1427 62.8893 65.5754Z" fill="#D3315C"/>
</svg>
