<svg width="74" height="71" viewBox="0 0 74 71" fill="none" xmlns="http://www.w3.org/2000/svg">
<g clip-path="url(#clip0_302_433)">
<path d="M71.3072 59.4324L63.9715 28.6721H55.0438V35.4431H56.5476V39.6034H49.2624V35.4431H50.7662V28.6721H23.2339V35.4431H24.7376V39.6034H17.4526V35.4431H18.9564V28.6721H10.0285L2.69287 59.4324C2.02061 62.2519 2.69658 65.1684 4.54796 67.4345C6.39934 69.7005 9.16764 71 12.1434 71H61.8565C64.8322 71 67.6008 69.7004 69.4521 67.4345C71.3035 65.1684 71.9796 62.2519 71.3072 59.4324ZM43.1191 39.6035H39.1388V42.8179H34.8613V39.6035H30.8809V35.4432H43.1193V39.6035H43.1191Z" fill="#D3315C"/>
<path d="M36.9999 0C27.0506 0 18.9562 7.8727 18.9562 17.5492V28.6721H23.2337V17.5492C23.2337 10.1665 29.4092 4.1603 36.9999 4.1603C44.5905 4.1603 50.7661 10.1666 50.7661 17.5492V28.6721H55.0436V17.5492C55.0436 7.8727 46.9493 0 36.9999 0Z" fill="#D3315C"/>
</g>
<defs>
<clipPath id="clip0_302_433">
<rect width="73" height="71" fill="white" transform="translate(0.5)"/>
</clipPath>
</defs>
</svg>
