<svg xmlns="http://www.w3.org/2000/svg" version="1.1" xmlns:xlink="http://www.w3.org/1999/xlink" width="512" height="512" x="0" y="0" viewBox="0 0 512 512" style="enable-background:new 0 0 512 512" xml:space="preserve" class=""><g><path d="m507.606 358.374-36.101-36.101c-95.041 29.03-339.024 28.161-431.24.23L4.394 358.374a15.002 15.002 0 0 0 5.694 24.779c115.831 43.038 379.224 42.11 491.823 0a14.999 14.999 0 0 0 5.695-24.779zM446.986 297.178c-4.598-40.544-18.078-146.038-35.78-163.737-1.074-1.074-11.026-18.887-153.346-36.41a15.042 15.042 0 0 0-3.721 0c-142.319 17.523-152.271 35.336-153.346 36.41-17.723 17.721-31.214 123.452-35.796 163.887 7.863 1.773 79.621 17.232 190.665 17.232 115.728 0 188.793-16.793 191.324-17.382z" fill="#d3315c" opacity="1" data-original="#000000" class=""></path></g></svg>