<svg width="31" height="31" viewBox="0 0 31 31" fill="none" xmlns="http://www.w3.org/2000/svg">
<path d="M8.55934 7.05433C8.11226 6.60689 7.38691 6.60689 6.93983 7.05433C5.27988 8.71428 4.46401 11.0267 4.70111 13.399C4.76027 13.99 5.25814 14.4306 5.83957 14.4306C5.87778 14.4306 5.91629 14.4286 5.95449 14.4248C6.58406 14.3619 7.04331 13.8002 6.98034 13.1711C6.81159 11.4852 7.38734 9.84584 8.55934 8.67378C9.00678 8.22676 9.00678 7.50135 8.55934 7.05433Z" fill="#D3315C"/>
<path d="M13.0948 0C5.87432 0 0 5.87432 0 13.0948C0 20.3154 5.87432 26.1897 13.0948 26.1897C20.3154 26.1897 26.1897 20.3154 26.1897 13.0948C26.1897 5.87432 20.3153 0 13.0948 0ZM13.0948 23.899C7.13727 23.899 2.29067 19.0524 2.29067 13.0948C2.29067 7.13727 7.13727 2.29067 13.0948 2.29067C19.052 2.29067 23.899 7.13727 23.899 13.0948C23.899 19.0524 19.0524 23.899 13.0948 23.899Z" fill="#D3315C"/>
<path d="M30.6644 29.045L22.3417 20.7223C21.8942 20.2749 21.1696 20.2749 20.7222 20.7223C20.2747 21.1694 20.2747 21.8947 20.7222 22.3418L29.0449 30.6645C29.1511 30.771 29.2773 30.8555 29.4163 30.9131C29.5552 30.9707 29.7042 31.0002 29.8546 31C30.1479 31 30.4407 30.8882 30.6644 30.6645C31.1118 30.2174 31.1118 29.492 30.6644 29.045Z" fill="#D3315C"/>
</svg>
