<svg width="72" height="71" viewBox="0 0 72 71" fill="none" xmlns="http://www.w3.org/2000/svg">
<path d="M69.5264 63.2898L54.4367 8.32031H17.5566L2.4281 60.1914C2.346 60.4709 2.48911 60.7605 2.76091 60.8636L14.9008 65.5319C18.2844 45.186 22.0929 22.03 22.1328 21.0693C22.1461 20.7686 22.3558 20.5179 22.6986 20.5301C23.0003 20.5368 23.2422 20.7753 23.2422 21.077C23.2422 22.03 18.2833 51.9598 15.9015 66.2752C15.9048 66.3484 15.8937 66.4238 15.866 66.497C15.866 66.4982 15.8648 66.4982 15.8648 66.4993C15.7994 66.8909 15.7362 67.2758 15.6751 67.6419C15.6496 67.7995 15.6896 67.9537 15.7894 68.0768C15.8915 68.2022 16.0368 68.2754 16.1977 68.2831L38.1355 69.2805C38.302 69.2971 38.4417 69.2305 38.5538 69.1185C38.6658 69.0065 38.7224 68.8578 38.7158 68.6992L36.558 25.5434C36.5425 25.2372 36.7777 24.9776 37.0839 24.962C37.4255 24.9387 37.6508 25.1828 37.6652 25.489L39.8007 68.1966L55.7713 67.1982C55.9332 67.1882 56.0775 67.1105 56.1773 66.9818C56.276 66.852 56.3127 66.6934 56.2794 66.5337L47.6595 24.5183C47.5985 24.2177 47.7915 23.9248 48.0922 23.8638C48.3884 23.805 48.6857 23.9947 48.7478 24.2953L57.2623 65.8026L69.076 63.9854C69.2347 63.961 69.3711 63.8734 69.4576 63.738C69.5442 63.6038 69.5686 63.444 69.5264 63.2898Z" fill="#D3315C"/>
<path d="M54.3047 2.21875C54.3047 1.91256 54.0551 1.66406 53.75 1.66406H18.25C17.9449 1.66406 17.6953 1.91256 17.6953 2.21875V7.21094H54.3047V2.21875Z" fill="#D3315C"/>
</svg>
