<svg xmlns="http://www.w3.org/2000/svg" version="1.1" xmlns:xlink="http://www.w3.org/1999/xlink" width="512" height="512" x="0" y="0" viewBox="0 0 512 512" style="enable-background:new 0 0 512 512" xml:space="preserve" class=""><g><path fill="#d3315c" d="M432.733 512H79.267a15 15 0 0 1-14.552-11.362L33.556 376.001C11.885 352.83 0 322.775 0 290.896v-50.963c0-3.979 1.58-7.794 4.394-10.606L48.2 185.521V15c0-8.284 6.716-15 15-15h64.267c8.284 0 15 6.716 15 15v170.364c63.835 59.383 163.241 59.382 227.066.001V15c0-8.284 6.716-15 15-15H448.8c8.284 0 15 6.716 15 15v170.521l43.807 43.807a15 15 0 0 1 4.394 10.606v50.963c0 31.879-11.885 61.934-33.556 85.104l-31.159 124.637A15.002 15.002 0 0 1 432.733 512z" opacity="1" data-original="#ffcdf0" class=""></path><path fill="#e54e6f" d="M463.8 185.521V15c0-8.284-6.716-15-15-15h-64.267c-8.284 0-15 6.716-15 15v170.365C337.62 215.057 296.81 229.902 256 229.901V512h176.733a15 15 0 0 0 14.552-11.362l31.159-124.637C500.115 352.83 512 322.775 512 290.896v-50.963c0-3.979-1.58-7.794-4.394-10.606z" opacity="1" data-original="#ffa3d5" class=""></path></g></svg>